<svg width="43" height="43" viewBox="0 0 43 43" fill="none" xmlns="http://www.w3.org/2000/svg">
<g id="Capa_1">
<g id="Group">
<g id="Group_2">
<path id="Vector" d="M38.4293 20.5073L35.8889 19.4078L33.7316 15.2099C33.1486 14.0605 31.9658 13.3442 30.6748 13.3525H26.96V12.303C26.96 10.404 25.4441 8.85474 23.545 8.85474H5.7872C3.88815 8.85474 2.38889 10.4123 2.38889 12.303V28.3783C2.37224 29.5361 3.29677 30.4856 4.45453 30.5023C4.46286 30.5023 4.47119 30.5023 4.48785 30.5023H4.92929C4.92929 30.5856 4.92096 30.6189 4.92096 30.6689C4.91264 33.051 6.83668 34.9917 9.21882 35C11.601 35.0084 13.5417 33.0843 13.55 30.7022C13.55 30.6855 13.55 30.6772 13.55 30.6605C13.55 30.6022 13.55 30.5772 13.5417 30.4939H27.8928C27.8928 30.5772 27.8928 30.6106 27.8928 30.6605C27.8845 33.0427 29.8086 34.9834 32.1907 34.9917C34.5728 35 36.5135 33.076 36.5219 30.6938C36.5219 30.6772 36.5219 30.6689 36.5219 30.6522C36.5219 30.5939 36.5219 30.5689 36.5219 30.4856H37.5963C38.7541 30.4856 39.6953 29.5444 39.6953 28.3867C39.6953 28.3783 39.6953 28.37 39.6953 28.3533V22.4396C39.712 21.6234 39.2122 20.8488 38.4293 20.5073ZM9.24381 33.3425C7.77787 33.3425 6.59513 32.1598 6.59513 30.6938C6.59513 29.2279 7.77787 28.0452 9.24381 28.0452C10.7097 28.0452 11.8925 29.2279 11.8925 30.6938C11.8925 32.1515 10.7014 33.3425 9.24381 33.3425ZM25.2941 28.8531H13.1502C12.4505 27.3289 10.918 26.3543 9.24381 26.3627C7.56132 26.3543 6.03707 27.3205 5.33742 28.8531H4.48785C4.22964 28.8531 4.05473 28.6532 4.05473 28.395V24.1055H25.2941V28.8531ZM25.2941 12.3113V22.4396H4.05473V12.3113C4.05473 11.3368 4.81269 10.5289 5.7872 10.5289H23.545C24.5195 10.5372 25.3025 11.3368 25.2941 12.303V12.3113ZM26.96 15.0267H30.6748C31.3328 15.0183 31.9492 15.3765 32.2573 15.9679L33.9232 19.1912H26.96V15.0267ZM32.2157 33.3425C30.7498 33.3425 29.567 32.1598 29.567 30.6938C29.567 29.2279 30.7498 28.0452 32.2157 28.0452C33.6816 28.0452 34.8644 29.2279 34.8644 30.6938C34.8644 32.1515 33.6816 33.3425 32.2157 33.3425ZM38.0378 28.395C38.0378 28.6532 37.8629 28.8531 37.6047 28.8531H36.1221C35.1142 26.6958 32.5489 25.763 30.3916 26.7708C29.4754 27.1956 28.7341 27.9369 28.3093 28.8531H26.96V20.8571H35.1226L37.7713 22.0232C37.9378 22.1065 38.0461 22.2897 38.0378 22.4729V28.395Z" fill="white"/>
</g>
</g>
</g>
</svg>
