<svg width="43" height="43" viewBox="0 0 43 43" fill="none" xmlns="http://www.w3.org/2000/svg">
<g id="ph:money-light">
<path id="Vector" d="M21.043 28.1616C22.276 28.1616 23.4814 27.796 24.5066 27.1109C25.5318 26.4259 26.3309 25.4522 26.8028 24.313C27.2746 23.1739 27.3981 21.9203 27.1576 20.711C26.917 19.5016 26.3232 18.3908 25.4513 17.5189C24.5794 16.647 23.4686 16.0532 22.2592 15.8127C21.0499 15.5721 19.7964 15.6956 18.6572 16.1674C17.518 16.6393 16.5443 17.4384 15.8593 18.4636C15.1742 19.4889 14.8086 20.6942 14.8086 21.9272C14.8086 23.5807 15.4654 25.1664 16.6346 26.3356C17.8038 27.5048 19.3895 28.1616 21.043 28.1616ZM21.043 17.6616C21.8866 17.6616 22.7113 17.9118 23.4128 18.3805C24.1143 18.8492 24.661 19.5154 24.9839 20.2949C25.3068 21.0743 25.3912 21.932 25.2266 22.7594C25.062 23.5869 24.6558 24.3469 24.0592 24.9435C23.4627 25.5401 22.7026 25.9463 21.8752 26.1109C21.0477 26.2755 20.19 26.191 19.4106 25.8682C18.6311 25.5453 17.9649 24.9986 17.4962 24.2971C17.0275 23.5956 16.7773 22.7709 16.7773 21.9272C16.7773 20.7959 17.2268 19.711 18.0267 18.911C18.8267 18.111 19.9117 17.6616 21.043 17.6616ZM39.418 10.4429H2.66797C2.4069 10.4429 2.15652 10.5466 1.97191 10.7312C1.7873 10.9158 1.68359 11.1662 1.68359 11.4272V32.4272C1.68359 32.6883 1.7873 32.9387 1.97191 33.1233C2.15652 33.3079 2.4069 33.4116 2.66797 33.4116H39.418C39.679 33.4116 39.9294 33.3079 40.114 33.1233C40.2986 32.9387 40.4023 32.6883 40.4023 32.4272V11.4272C40.4023 11.1662 40.2986 10.9158 40.114 10.7312C39.9294 10.5466 39.679 10.4429 39.418 10.4429ZM3.65234 18.7805C5.18081 18.3739 6.57475 17.5708 7.69313 16.4524C8.81151 15.334 9.61463 13.9401 10.0213 12.4116H32.0647C32.4713 13.9401 33.2744 15.334 34.3928 16.4524C35.5112 17.5708 36.9051 18.3739 38.4336 18.7805V25.074C36.9051 25.4806 35.5112 26.2837 34.3928 27.4021C33.2744 28.5205 32.4713 29.9144 32.0647 31.4429H10.0213C9.61463 29.9144 8.81151 28.5205 7.69313 27.4021C6.57475 26.2837 5.18081 25.4806 3.65234 25.074V18.7805ZM38.4336 16.7248C37.4366 16.3765 36.531 15.8078 35.7842 15.061C35.0374 14.3143 34.4687 13.4086 34.1204 12.4116H38.4336V16.7248ZM7.96555 12.4116C7.61724 13.4086 7.04853 14.3143 6.30175 15.061C5.55497 15.8078 4.64936 16.3765 3.65234 16.7248V12.4116H7.96555ZM3.65234 27.1297C4.64936 27.478 5.55497 28.0467 6.30175 28.7935C7.04853 29.5402 7.61724 30.4459 7.96555 31.4429H3.65234V27.1297ZM34.1204 31.4429C34.4687 30.4459 35.0374 29.5402 35.7842 28.7935C36.531 28.0467 37.4366 27.478 38.4336 27.1297V31.4429H34.1204Z" fill="#00A866"/>
</g>
</svg>
