<svg width="24" height="24" viewBox="0 0 24 24" fill="none" xmlns="http://www.w3.org/2000/svg">
<g id="formkit:whatsapp">
<path id="Vector" d="M20.925 6.35997C17.79 1.49997 11.37 0.0599657 6.40499 3.07497C1.55999 6.08997 -1.04904e-05 12.66 3.13499 17.505L3.38999 17.895L2.33999 21.825L6.26999 20.775L6.65999 21.03C8.35499 21.945 10.2 22.47 12.03 22.47C13.995 22.47 15.96 21.945 17.655 20.895C22.5 17.745 23.94 11.31 20.925 6.32997V6.35997ZM18.18 16.47C17.655 17.25 16.995 17.775 16.08 17.91C15.555 17.91 14.895 18.165 12.285 17.13C10.065 16.08 8.21999 14.37 6.91499 12.405C6.13499 11.49 5.72999 10.305 5.60999 9.11997C5.60999 8.06997 5.99999 7.15497 6.65999 6.49497C6.91499 6.23997 7.18499 6.10497 7.43999 6.10497H8.09999C8.35499 6.10497 8.62499 6.10497 8.75999 6.62997C9.01499 7.28997 9.67499 8.86497 9.67499 8.99997C9.80999 9.13497 9.74999 10.14 9.14999 10.71C8.81999 11.085 8.75999 11.1 8.89499 11.37C9.41999 12.15 10.08 12.945 10.725 13.605C11.505 14.265 12.3 14.79 13.215 15.18C13.47 15.315 13.74 15.315 13.875 15.045C14.01 14.79 14.655 14.13 14.925 13.86C15.18 13.605 15.315 13.605 15.585 13.725L17.685 14.775C17.94 14.91 18.21 15.03 18.345 15.165C18.48 15.555 18.48 16.08 18.21 16.47H18.18Z" fill="white"/>
</g>
</svg>
